<mxfile host="app.diagrams.net" modified="2023-06-26T13:09:51.794Z" agent="Mozilla/5.0 (X11; CrOS x86_64 15183.90.16) AppleWebKit/537.36 (KHTML, like Gecko) Chrome/108.0.0.0 Safari/537.36" etag="fvnR-jLuzXW038Eaazgn" version="21.5.0" type="github">
  <diagram name="Page-1" id="Q-Yk8iKNXh53SmRI3gW5">
    <mxGraphModel dx="2200" dy="1288" grid="1" gridSize="10" guides="1" tooltips="1" connect="1" arrows="1" fold="1" page="1" pageScale="1" pageWidth="827" pageHeight="1169" math="0" shadow="0">
      <root>
        <mxCell id="0" />
        <mxCell id="1" parent="0" />
        <mxCell id="L259wKFu9ayAV8lxhYdo-257" value="" style="group" vertex="1" connectable="0" parent="1">
          <mxGeometry x="120" y="270" width="1400" height="480" as="geometry" />
        </mxCell>
        <mxCell id="L259wKFu9ayAV8lxhYdo-6" value="" style="verticalLabelPosition=bottom;verticalAlign=top;html=1;shape=hexagon;perimeter=hexagonPerimeter2;arcSize=6;size=0.1;" vertex="1" parent="L259wKFu9ayAV8lxhYdo-257">
          <mxGeometry x="30" width="200" height="40" as="geometry" />
        </mxCell>
        <mxCell id="L259wKFu9ayAV8lxhYdo-7" value="" style="verticalLabelPosition=bottom;verticalAlign=top;html=1;shape=hexagon;perimeter=hexagonPerimeter2;arcSize=6;size=0.1;rotation=90;" vertex="1" parent="L259wKFu9ayAV8lxhYdo-257">
          <mxGeometry x="-80" y="110" width="200" height="40" as="geometry" />
        </mxCell>
        <mxCell id="L259wKFu9ayAV8lxhYdo-8" value="" style="verticalLabelPosition=bottom;verticalAlign=top;html=1;shape=hexagon;perimeter=hexagonPerimeter2;arcSize=6;size=0.1;rotation=90;" vertex="1" parent="L259wKFu9ayAV8lxhYdo-257">
          <mxGeometry x="140" y="110" width="200" height="40" as="geometry" />
        </mxCell>
        <mxCell id="L259wKFu9ayAV8lxhYdo-9" value="" style="verticalLabelPosition=bottom;verticalAlign=top;html=1;shape=hexagon;perimeter=hexagonPerimeter2;arcSize=6;size=0.1;" vertex="1" parent="L259wKFu9ayAV8lxhYdo-257">
          <mxGeometry x="30" y="220" width="200" height="40" as="geometry" />
        </mxCell>
        <mxCell id="L259wKFu9ayAV8lxhYdo-10" value="" style="verticalLabelPosition=bottom;verticalAlign=top;html=1;shape=hexagon;perimeter=hexagonPerimeter2;arcSize=6;size=0.1;rotation=90;" vertex="1" parent="L259wKFu9ayAV8lxhYdo-257">
          <mxGeometry x="-80" y="330" width="200" height="40" as="geometry" />
        </mxCell>
        <mxCell id="L259wKFu9ayAV8lxhYdo-11" value="" style="verticalLabelPosition=bottom;verticalAlign=top;html=1;shape=hexagon;perimeter=hexagonPerimeter2;arcSize=6;size=0.1;rotation=90;" vertex="1" parent="L259wKFu9ayAV8lxhYdo-257">
          <mxGeometry x="140" y="330" width="200" height="40" as="geometry" />
        </mxCell>
        <mxCell id="L259wKFu9ayAV8lxhYdo-12" value="" style="verticalLabelPosition=bottom;verticalAlign=top;html=1;shape=hexagon;perimeter=hexagonPerimeter2;arcSize=6;size=0.1;" vertex="1" parent="L259wKFu9ayAV8lxhYdo-257">
          <mxGeometry x="30" y="440" width="200" height="40" as="geometry" />
        </mxCell>
        <mxCell id="L259wKFu9ayAV8lxhYdo-24" value="" style="endArrow=none;html=1;rounded=0;" edge="1" parent="L259wKFu9ayAV8lxhYdo-257">
          <mxGeometry width="50" height="50" relative="1" as="geometry">
            <mxPoint x="140" y="320" as="sourcePoint" />
            <mxPoint x="190" y="270" as="targetPoint" />
          </mxGeometry>
        </mxCell>
        <mxCell id="L259wKFu9ayAV8lxhYdo-27" value="" style="endArrow=none;html=1;rounded=0;" edge="1" parent="L259wKFu9ayAV8lxhYdo-257">
          <mxGeometry width="50" height="50" relative="1" as="geometry">
            <mxPoint x="160" y="340" as="sourcePoint" />
            <mxPoint x="210" y="290" as="targetPoint" />
          </mxGeometry>
        </mxCell>
        <mxCell id="L259wKFu9ayAV8lxhYdo-28" value="" style="endArrow=none;html=1;rounded=0;" edge="1" parent="L259wKFu9ayAV8lxhYdo-257">
          <mxGeometry width="50" height="50" relative="1" as="geometry">
            <mxPoint x="50" y="410" as="sourcePoint" />
            <mxPoint x="100" y="360" as="targetPoint" />
          </mxGeometry>
        </mxCell>
        <mxCell id="L259wKFu9ayAV8lxhYdo-29" value="" style="endArrow=none;html=1;rounded=0;" edge="1" parent="L259wKFu9ayAV8lxhYdo-257">
          <mxGeometry width="50" height="50" relative="1" as="geometry">
            <mxPoint x="70" y="430" as="sourcePoint" />
            <mxPoint x="120" y="380" as="targetPoint" />
          </mxGeometry>
        </mxCell>
        <mxCell id="L259wKFu9ayAV8lxhYdo-30" value="" style="endArrow=none;html=1;rounded=0;" edge="1" parent="L259wKFu9ayAV8lxhYdo-257">
          <mxGeometry width="50" height="50" relative="1" as="geometry">
            <mxPoint x="100" y="340" as="sourcePoint" />
            <mxPoint x="50" y="290" as="targetPoint" />
          </mxGeometry>
        </mxCell>
        <mxCell id="L259wKFu9ayAV8lxhYdo-32" value="" style="endArrow=none;html=1;rounded=0;" edge="1" parent="L259wKFu9ayAV8lxhYdo-257">
          <mxGeometry width="50" height="50" relative="1" as="geometry">
            <mxPoint x="120" y="320" as="sourcePoint" />
            <mxPoint x="70" y="270" as="targetPoint" />
          </mxGeometry>
        </mxCell>
        <mxCell id="L259wKFu9ayAV8lxhYdo-34" value="" style="endArrow=none;html=1;rounded=0;" edge="1" parent="L259wKFu9ayAV8lxhYdo-257">
          <mxGeometry width="50" height="50" relative="1" as="geometry">
            <mxPoint x="50" y="270" as="sourcePoint" />
            <mxPoint x="70" y="270" as="targetPoint" />
          </mxGeometry>
        </mxCell>
        <mxCell id="L259wKFu9ayAV8lxhYdo-35" value="" style="endArrow=none;html=1;rounded=0;" edge="1" parent="L259wKFu9ayAV8lxhYdo-257">
          <mxGeometry width="50" height="50" relative="1" as="geometry">
            <mxPoint x="190" y="270" as="sourcePoint" />
            <mxPoint x="210" y="270" as="targetPoint" />
          </mxGeometry>
        </mxCell>
        <mxCell id="L259wKFu9ayAV8lxhYdo-36" value="" style="endArrow=none;html=1;rounded=0;" edge="1" parent="L259wKFu9ayAV8lxhYdo-257">
          <mxGeometry width="50" height="50" relative="1" as="geometry">
            <mxPoint x="50" y="430" as="sourcePoint" />
            <mxPoint x="70" y="430" as="targetPoint" />
          </mxGeometry>
        </mxCell>
        <mxCell id="L259wKFu9ayAV8lxhYdo-37" value="" style="endArrow=none;html=1;rounded=0;" edge="1" parent="L259wKFu9ayAV8lxhYdo-257">
          <mxGeometry width="50" height="50" relative="1" as="geometry">
            <mxPoint x="190" y="430" as="sourcePoint" />
            <mxPoint x="210" y="430" as="targetPoint" />
          </mxGeometry>
        </mxCell>
        <mxCell id="L259wKFu9ayAV8lxhYdo-38" value="" style="endArrow=none;html=1;rounded=0;" edge="1" parent="L259wKFu9ayAV8lxhYdo-257">
          <mxGeometry width="50" height="50" relative="1" as="geometry">
            <mxPoint x="190" y="430" as="sourcePoint" />
            <mxPoint x="140" y="380" as="targetPoint" />
          </mxGeometry>
        </mxCell>
        <mxCell id="L259wKFu9ayAV8lxhYdo-39" value="" style="endArrow=none;html=1;rounded=0;" edge="1" parent="L259wKFu9ayAV8lxhYdo-257">
          <mxGeometry width="50" height="50" relative="1" as="geometry">
            <mxPoint x="210" y="410" as="sourcePoint" />
            <mxPoint x="160" y="360" as="targetPoint" />
          </mxGeometry>
        </mxCell>
        <mxCell id="L259wKFu9ayAV8lxhYdo-40" value="" style="endArrow=none;html=1;rounded=0;" edge="1" parent="L259wKFu9ayAV8lxhYdo-257">
          <mxGeometry width="50" height="50" relative="1" as="geometry">
            <mxPoint x="50" y="430" as="sourcePoint" />
            <mxPoint x="50" y="410" as="targetPoint" />
          </mxGeometry>
        </mxCell>
        <mxCell id="L259wKFu9ayAV8lxhYdo-41" value="" style="endArrow=none;html=1;rounded=0;" edge="1" parent="L259wKFu9ayAV8lxhYdo-257">
          <mxGeometry width="50" height="50" relative="1" as="geometry">
            <mxPoint x="210" y="430" as="sourcePoint" />
            <mxPoint x="210" y="410" as="targetPoint" />
          </mxGeometry>
        </mxCell>
        <mxCell id="L259wKFu9ayAV8lxhYdo-42" value="" style="endArrow=none;html=1;rounded=0;" edge="1" parent="L259wKFu9ayAV8lxhYdo-257">
          <mxGeometry width="50" height="50" relative="1" as="geometry">
            <mxPoint x="50" y="290" as="sourcePoint" />
            <mxPoint x="50" y="270" as="targetPoint" />
          </mxGeometry>
        </mxCell>
        <mxCell id="L259wKFu9ayAV8lxhYdo-43" value="" style="endArrow=none;html=1;rounded=0;" edge="1" parent="L259wKFu9ayAV8lxhYdo-257">
          <mxGeometry width="50" height="50" relative="1" as="geometry">
            <mxPoint x="210" y="290" as="sourcePoint" />
            <mxPoint x="210" y="270" as="targetPoint" />
          </mxGeometry>
        </mxCell>
        <mxCell id="L259wKFu9ayAV8lxhYdo-44" value="" style="endArrow=none;html=1;rounded=0;" edge="1" parent="L259wKFu9ayAV8lxhYdo-257">
          <mxGeometry width="50" height="50" relative="1" as="geometry">
            <mxPoint x="140" y="360" as="sourcePoint" />
            <mxPoint x="160" y="360" as="targetPoint" />
          </mxGeometry>
        </mxCell>
        <mxCell id="L259wKFu9ayAV8lxhYdo-45" value="" style="endArrow=none;html=1;rounded=0;" edge="1" parent="L259wKFu9ayAV8lxhYdo-257">
          <mxGeometry width="50" height="50" relative="1" as="geometry">
            <mxPoint x="140" y="360" as="sourcePoint" />
            <mxPoint x="140" y="380" as="targetPoint" />
          </mxGeometry>
        </mxCell>
        <mxCell id="L259wKFu9ayAV8lxhYdo-46" value="" style="endArrow=none;html=1;rounded=0;" edge="1" parent="L259wKFu9ayAV8lxhYdo-257">
          <mxGeometry width="50" height="50" relative="1" as="geometry">
            <mxPoint x="120" y="360" as="sourcePoint" />
            <mxPoint x="120" y="380" as="targetPoint" />
          </mxGeometry>
        </mxCell>
        <mxCell id="L259wKFu9ayAV8lxhYdo-48" value="" style="endArrow=none;html=1;rounded=0;" edge="1" parent="L259wKFu9ayAV8lxhYdo-257">
          <mxGeometry width="50" height="50" relative="1" as="geometry">
            <mxPoint x="140" y="320" as="sourcePoint" />
            <mxPoint x="140" y="340" as="targetPoint" />
          </mxGeometry>
        </mxCell>
        <mxCell id="L259wKFu9ayAV8lxhYdo-49" value="" style="endArrow=none;html=1;rounded=0;" edge="1" parent="L259wKFu9ayAV8lxhYdo-257">
          <mxGeometry width="50" height="50" relative="1" as="geometry">
            <mxPoint x="120" y="320" as="sourcePoint" />
            <mxPoint x="120" y="340" as="targetPoint" />
          </mxGeometry>
        </mxCell>
        <mxCell id="L259wKFu9ayAV8lxhYdo-50" value="" style="endArrow=none;html=1;rounded=0;" edge="1" parent="L259wKFu9ayAV8lxhYdo-257">
          <mxGeometry width="50" height="50" relative="1" as="geometry">
            <mxPoint x="140" y="340" as="sourcePoint" />
            <mxPoint x="160" y="340" as="targetPoint" />
          </mxGeometry>
        </mxCell>
        <mxCell id="L259wKFu9ayAV8lxhYdo-51" value="" style="endArrow=none;html=1;rounded=0;" edge="1" parent="L259wKFu9ayAV8lxhYdo-257">
          <mxGeometry width="50" height="50" relative="1" as="geometry">
            <mxPoint x="100" y="340" as="sourcePoint" />
            <mxPoint x="120" y="340" as="targetPoint" />
          </mxGeometry>
        </mxCell>
        <mxCell id="L259wKFu9ayAV8lxhYdo-52" value="" style="endArrow=none;html=1;rounded=0;" edge="1" parent="L259wKFu9ayAV8lxhYdo-257">
          <mxGeometry width="50" height="50" relative="1" as="geometry">
            <mxPoint x="100" y="360" as="sourcePoint" />
            <mxPoint x="120" y="360" as="targetPoint" />
          </mxGeometry>
        </mxCell>
        <mxCell id="L259wKFu9ayAV8lxhYdo-53" value="" style="endArrow=none;html=1;rounded=0;" edge="1" parent="L259wKFu9ayAV8lxhYdo-257">
          <mxGeometry width="50" height="50" relative="1" as="geometry">
            <mxPoint x="140" y="100" as="sourcePoint" />
            <mxPoint x="190" y="50" as="targetPoint" />
          </mxGeometry>
        </mxCell>
        <mxCell id="L259wKFu9ayAV8lxhYdo-54" value="" style="endArrow=none;html=1;rounded=0;" edge="1" parent="L259wKFu9ayAV8lxhYdo-257">
          <mxGeometry width="50" height="50" relative="1" as="geometry">
            <mxPoint x="160" y="120" as="sourcePoint" />
            <mxPoint x="210" y="70" as="targetPoint" />
          </mxGeometry>
        </mxCell>
        <mxCell id="L259wKFu9ayAV8lxhYdo-55" value="" style="endArrow=none;html=1;rounded=0;" edge="1" parent="L259wKFu9ayAV8lxhYdo-257">
          <mxGeometry width="50" height="50" relative="1" as="geometry">
            <mxPoint x="50" y="190" as="sourcePoint" />
            <mxPoint x="100" y="140" as="targetPoint" />
          </mxGeometry>
        </mxCell>
        <mxCell id="L259wKFu9ayAV8lxhYdo-56" value="" style="endArrow=none;html=1;rounded=0;" edge="1" parent="L259wKFu9ayAV8lxhYdo-257">
          <mxGeometry width="50" height="50" relative="1" as="geometry">
            <mxPoint x="70" y="210" as="sourcePoint" />
            <mxPoint x="120" y="160" as="targetPoint" />
          </mxGeometry>
        </mxCell>
        <mxCell id="L259wKFu9ayAV8lxhYdo-57" value="" style="endArrow=none;html=1;rounded=0;" edge="1" parent="L259wKFu9ayAV8lxhYdo-257">
          <mxGeometry width="50" height="50" relative="1" as="geometry">
            <mxPoint x="100" y="120" as="sourcePoint" />
            <mxPoint x="50" y="70" as="targetPoint" />
          </mxGeometry>
        </mxCell>
        <mxCell id="L259wKFu9ayAV8lxhYdo-58" value="" style="endArrow=none;html=1;rounded=0;" edge="1" parent="L259wKFu9ayAV8lxhYdo-257">
          <mxGeometry width="50" height="50" relative="1" as="geometry">
            <mxPoint x="120" y="100" as="sourcePoint" />
            <mxPoint x="70" y="50" as="targetPoint" />
          </mxGeometry>
        </mxCell>
        <mxCell id="L259wKFu9ayAV8lxhYdo-59" value="" style="endArrow=none;html=1;rounded=0;" edge="1" parent="L259wKFu9ayAV8lxhYdo-257">
          <mxGeometry width="50" height="50" relative="1" as="geometry">
            <mxPoint x="50" y="50" as="sourcePoint" />
            <mxPoint x="70" y="50" as="targetPoint" />
          </mxGeometry>
        </mxCell>
        <mxCell id="L259wKFu9ayAV8lxhYdo-60" value="" style="endArrow=none;html=1;rounded=0;" edge="1" parent="L259wKFu9ayAV8lxhYdo-257">
          <mxGeometry width="50" height="50" relative="1" as="geometry">
            <mxPoint x="190" y="50" as="sourcePoint" />
            <mxPoint x="210" y="50" as="targetPoint" />
          </mxGeometry>
        </mxCell>
        <mxCell id="L259wKFu9ayAV8lxhYdo-61" value="" style="endArrow=none;html=1;rounded=0;" edge="1" parent="L259wKFu9ayAV8lxhYdo-257">
          <mxGeometry width="50" height="50" relative="1" as="geometry">
            <mxPoint x="50" y="210" as="sourcePoint" />
            <mxPoint x="70" y="210" as="targetPoint" />
          </mxGeometry>
        </mxCell>
        <mxCell id="L259wKFu9ayAV8lxhYdo-62" value="" style="endArrow=none;html=1;rounded=0;" edge="1" parent="L259wKFu9ayAV8lxhYdo-257">
          <mxGeometry width="50" height="50" relative="1" as="geometry">
            <mxPoint x="190" y="210" as="sourcePoint" />
            <mxPoint x="210" y="210" as="targetPoint" />
          </mxGeometry>
        </mxCell>
        <mxCell id="L259wKFu9ayAV8lxhYdo-63" value="" style="endArrow=none;html=1;rounded=0;" edge="1" parent="L259wKFu9ayAV8lxhYdo-257">
          <mxGeometry width="50" height="50" relative="1" as="geometry">
            <mxPoint x="190" y="210" as="sourcePoint" />
            <mxPoint x="140" y="160" as="targetPoint" />
          </mxGeometry>
        </mxCell>
        <mxCell id="L259wKFu9ayAV8lxhYdo-64" value="" style="endArrow=none;html=1;rounded=0;" edge="1" parent="L259wKFu9ayAV8lxhYdo-257">
          <mxGeometry width="50" height="50" relative="1" as="geometry">
            <mxPoint x="210" y="190" as="sourcePoint" />
            <mxPoint x="160" y="140" as="targetPoint" />
          </mxGeometry>
        </mxCell>
        <mxCell id="L259wKFu9ayAV8lxhYdo-65" value="" style="endArrow=none;html=1;rounded=0;" edge="1" parent="L259wKFu9ayAV8lxhYdo-257">
          <mxGeometry width="50" height="50" relative="1" as="geometry">
            <mxPoint x="50" y="210" as="sourcePoint" />
            <mxPoint x="50" y="190" as="targetPoint" />
          </mxGeometry>
        </mxCell>
        <mxCell id="L259wKFu9ayAV8lxhYdo-66" value="" style="endArrow=none;html=1;rounded=0;" edge="1" parent="L259wKFu9ayAV8lxhYdo-257">
          <mxGeometry width="50" height="50" relative="1" as="geometry">
            <mxPoint x="210" y="210" as="sourcePoint" />
            <mxPoint x="210" y="190" as="targetPoint" />
          </mxGeometry>
        </mxCell>
        <mxCell id="L259wKFu9ayAV8lxhYdo-67" value="" style="endArrow=none;html=1;rounded=0;" edge="1" parent="L259wKFu9ayAV8lxhYdo-257">
          <mxGeometry width="50" height="50" relative="1" as="geometry">
            <mxPoint x="50" y="70" as="sourcePoint" />
            <mxPoint x="50" y="50" as="targetPoint" />
          </mxGeometry>
        </mxCell>
        <mxCell id="L259wKFu9ayAV8lxhYdo-68" value="" style="endArrow=none;html=1;rounded=0;" edge="1" parent="L259wKFu9ayAV8lxhYdo-257">
          <mxGeometry width="50" height="50" relative="1" as="geometry">
            <mxPoint x="210" y="70" as="sourcePoint" />
            <mxPoint x="210" y="50" as="targetPoint" />
          </mxGeometry>
        </mxCell>
        <mxCell id="L259wKFu9ayAV8lxhYdo-69" value="" style="endArrow=none;html=1;rounded=0;" edge="1" parent="L259wKFu9ayAV8lxhYdo-257">
          <mxGeometry width="50" height="50" relative="1" as="geometry">
            <mxPoint x="140" y="140" as="sourcePoint" />
            <mxPoint x="160" y="140" as="targetPoint" />
          </mxGeometry>
        </mxCell>
        <mxCell id="L259wKFu9ayAV8lxhYdo-70" value="" style="endArrow=none;html=1;rounded=0;" edge="1" parent="L259wKFu9ayAV8lxhYdo-257">
          <mxGeometry width="50" height="50" relative="1" as="geometry">
            <mxPoint x="140" y="140" as="sourcePoint" />
            <mxPoint x="140" y="160" as="targetPoint" />
          </mxGeometry>
        </mxCell>
        <mxCell id="L259wKFu9ayAV8lxhYdo-71" value="" style="endArrow=none;html=1;rounded=0;" edge="1" parent="L259wKFu9ayAV8lxhYdo-257">
          <mxGeometry width="50" height="50" relative="1" as="geometry">
            <mxPoint x="120" y="140" as="sourcePoint" />
            <mxPoint x="120" y="160" as="targetPoint" />
          </mxGeometry>
        </mxCell>
        <mxCell id="L259wKFu9ayAV8lxhYdo-72" value="" style="endArrow=none;html=1;rounded=0;" edge="1" parent="L259wKFu9ayAV8lxhYdo-257">
          <mxGeometry width="50" height="50" relative="1" as="geometry">
            <mxPoint x="140" y="100" as="sourcePoint" />
            <mxPoint x="140" y="120" as="targetPoint" />
          </mxGeometry>
        </mxCell>
        <mxCell id="L259wKFu9ayAV8lxhYdo-73" value="" style="endArrow=none;html=1;rounded=0;" edge="1" parent="L259wKFu9ayAV8lxhYdo-257">
          <mxGeometry width="50" height="50" relative="1" as="geometry">
            <mxPoint x="120" y="100" as="sourcePoint" />
            <mxPoint x="120" y="120" as="targetPoint" />
          </mxGeometry>
        </mxCell>
        <mxCell id="L259wKFu9ayAV8lxhYdo-74" value="" style="endArrow=none;html=1;rounded=0;" edge="1" parent="L259wKFu9ayAV8lxhYdo-257">
          <mxGeometry width="50" height="50" relative="1" as="geometry">
            <mxPoint x="140" y="120" as="sourcePoint" />
            <mxPoint x="160" y="120" as="targetPoint" />
          </mxGeometry>
        </mxCell>
        <mxCell id="L259wKFu9ayAV8lxhYdo-75" value="" style="endArrow=none;html=1;rounded=0;" edge="1" parent="L259wKFu9ayAV8lxhYdo-257">
          <mxGeometry width="50" height="50" relative="1" as="geometry">
            <mxPoint x="100" y="120" as="sourcePoint" />
            <mxPoint x="120" y="120" as="targetPoint" />
          </mxGeometry>
        </mxCell>
        <mxCell id="L259wKFu9ayAV8lxhYdo-76" value="" style="endArrow=none;html=1;rounded=0;" edge="1" parent="L259wKFu9ayAV8lxhYdo-257">
          <mxGeometry width="50" height="50" relative="1" as="geometry">
            <mxPoint x="100" y="140" as="sourcePoint" />
            <mxPoint x="120" y="140" as="targetPoint" />
          </mxGeometry>
        </mxCell>
        <mxCell id="L259wKFu9ayAV8lxhYdo-77" value="" style="ellipse;whiteSpace=wrap;html=1;aspect=fixed;" vertex="1" parent="L259wKFu9ayAV8lxhYdo-257">
          <mxGeometry x="310" y="420" width="40" height="40" as="geometry" />
        </mxCell>
        <mxCell id="L259wKFu9ayAV8lxhYdo-89" value="" style="verticalLabelPosition=bottom;verticalAlign=top;html=1;shape=hexagon;perimeter=hexagonPerimeter2;arcSize=6;size=0.1;" vertex="1" parent="L259wKFu9ayAV8lxhYdo-257">
          <mxGeometry x="410" width="200" height="40" as="geometry" />
        </mxCell>
        <mxCell id="L259wKFu9ayAV8lxhYdo-90" value="" style="verticalLabelPosition=bottom;verticalAlign=top;html=1;shape=hexagon;perimeter=hexagonPerimeter2;arcSize=6;size=0.1;rotation=90;" vertex="1" parent="L259wKFu9ayAV8lxhYdo-257">
          <mxGeometry x="300" y="110" width="200" height="40" as="geometry" />
        </mxCell>
        <mxCell id="L259wKFu9ayAV8lxhYdo-91" value="" style="verticalLabelPosition=bottom;verticalAlign=top;html=1;shape=hexagon;perimeter=hexagonPerimeter2;arcSize=6;size=0.1;rotation=90;" vertex="1" parent="L259wKFu9ayAV8lxhYdo-257">
          <mxGeometry x="520" y="110" width="200" height="40" as="geometry" />
        </mxCell>
        <mxCell id="L259wKFu9ayAV8lxhYdo-92" value="" style="verticalLabelPosition=bottom;verticalAlign=top;html=1;shape=hexagon;perimeter=hexagonPerimeter2;arcSize=6;size=0.1;" vertex="1" parent="L259wKFu9ayAV8lxhYdo-257">
          <mxGeometry x="410" y="220" width="200" height="40" as="geometry" />
        </mxCell>
        <mxCell id="L259wKFu9ayAV8lxhYdo-93" value="" style="verticalLabelPosition=bottom;verticalAlign=top;html=1;shape=hexagon;perimeter=hexagonPerimeter2;arcSize=6;size=0.1;rotation=90;" vertex="1" parent="L259wKFu9ayAV8lxhYdo-257">
          <mxGeometry x="300" y="330" width="200" height="40" as="geometry" />
        </mxCell>
        <mxCell id="L259wKFu9ayAV8lxhYdo-94" value="" style="verticalLabelPosition=bottom;verticalAlign=top;html=1;shape=hexagon;perimeter=hexagonPerimeter2;arcSize=6;size=0.1;rotation=90;" vertex="1" parent="L259wKFu9ayAV8lxhYdo-257">
          <mxGeometry x="520" y="330" width="200" height="40" as="geometry" />
        </mxCell>
        <mxCell id="L259wKFu9ayAV8lxhYdo-95" value="" style="verticalLabelPosition=bottom;verticalAlign=top;html=1;shape=hexagon;perimeter=hexagonPerimeter2;arcSize=6;size=0.1;" vertex="1" parent="L259wKFu9ayAV8lxhYdo-257">
          <mxGeometry x="410" y="440" width="200" height="40" as="geometry" />
        </mxCell>
        <mxCell id="L259wKFu9ayAV8lxhYdo-96" value="" style="endArrow=none;html=1;rounded=0;" edge="1" parent="L259wKFu9ayAV8lxhYdo-257">
          <mxGeometry width="50" height="50" relative="1" as="geometry">
            <mxPoint x="520" y="320" as="sourcePoint" />
            <mxPoint x="570" y="270" as="targetPoint" />
          </mxGeometry>
        </mxCell>
        <mxCell id="L259wKFu9ayAV8lxhYdo-97" value="" style="endArrow=none;html=1;rounded=0;" edge="1" parent="L259wKFu9ayAV8lxhYdo-257">
          <mxGeometry width="50" height="50" relative="1" as="geometry">
            <mxPoint x="540" y="340" as="sourcePoint" />
            <mxPoint x="590" y="290" as="targetPoint" />
          </mxGeometry>
        </mxCell>
        <mxCell id="L259wKFu9ayAV8lxhYdo-98" value="" style="endArrow=none;html=1;rounded=0;" edge="1" parent="L259wKFu9ayAV8lxhYdo-257">
          <mxGeometry width="50" height="50" relative="1" as="geometry">
            <mxPoint x="430" y="410" as="sourcePoint" />
            <mxPoint x="480" y="360" as="targetPoint" />
          </mxGeometry>
        </mxCell>
        <mxCell id="L259wKFu9ayAV8lxhYdo-99" value="" style="endArrow=none;html=1;rounded=0;" edge="1" parent="L259wKFu9ayAV8lxhYdo-257">
          <mxGeometry width="50" height="50" relative="1" as="geometry">
            <mxPoint x="450" y="430" as="sourcePoint" />
            <mxPoint x="500" y="380" as="targetPoint" />
          </mxGeometry>
        </mxCell>
        <mxCell id="L259wKFu9ayAV8lxhYdo-100" value="" style="endArrow=none;html=1;rounded=0;" edge="1" parent="L259wKFu9ayAV8lxhYdo-257">
          <mxGeometry width="50" height="50" relative="1" as="geometry">
            <mxPoint x="480" y="340" as="sourcePoint" />
            <mxPoint x="430" y="290" as="targetPoint" />
          </mxGeometry>
        </mxCell>
        <mxCell id="L259wKFu9ayAV8lxhYdo-101" value="" style="endArrow=none;html=1;rounded=0;" edge="1" parent="L259wKFu9ayAV8lxhYdo-257">
          <mxGeometry width="50" height="50" relative="1" as="geometry">
            <mxPoint x="500" y="320" as="sourcePoint" />
            <mxPoint x="450" y="270" as="targetPoint" />
          </mxGeometry>
        </mxCell>
        <mxCell id="L259wKFu9ayAV8lxhYdo-102" value="" style="endArrow=none;html=1;rounded=0;" edge="1" parent="L259wKFu9ayAV8lxhYdo-257">
          <mxGeometry width="50" height="50" relative="1" as="geometry">
            <mxPoint x="430" y="270" as="sourcePoint" />
            <mxPoint x="450" y="270" as="targetPoint" />
          </mxGeometry>
        </mxCell>
        <mxCell id="L259wKFu9ayAV8lxhYdo-103" value="" style="endArrow=none;html=1;rounded=0;" edge="1" parent="L259wKFu9ayAV8lxhYdo-257">
          <mxGeometry width="50" height="50" relative="1" as="geometry">
            <mxPoint x="570" y="270" as="sourcePoint" />
            <mxPoint x="590" y="270" as="targetPoint" />
          </mxGeometry>
        </mxCell>
        <mxCell id="L259wKFu9ayAV8lxhYdo-104" value="" style="endArrow=none;html=1;rounded=0;" edge="1" parent="L259wKFu9ayAV8lxhYdo-257">
          <mxGeometry width="50" height="50" relative="1" as="geometry">
            <mxPoint x="430" y="430" as="sourcePoint" />
            <mxPoint x="450" y="430" as="targetPoint" />
          </mxGeometry>
        </mxCell>
        <mxCell id="L259wKFu9ayAV8lxhYdo-105" value="" style="endArrow=none;html=1;rounded=0;" edge="1" parent="L259wKFu9ayAV8lxhYdo-257">
          <mxGeometry width="50" height="50" relative="1" as="geometry">
            <mxPoint x="570" y="430" as="sourcePoint" />
            <mxPoint x="590" y="430" as="targetPoint" />
          </mxGeometry>
        </mxCell>
        <mxCell id="L259wKFu9ayAV8lxhYdo-106" value="" style="endArrow=none;html=1;rounded=0;" edge="1" parent="L259wKFu9ayAV8lxhYdo-257">
          <mxGeometry width="50" height="50" relative="1" as="geometry">
            <mxPoint x="570" y="430" as="sourcePoint" />
            <mxPoint x="520" y="380" as="targetPoint" />
          </mxGeometry>
        </mxCell>
        <mxCell id="L259wKFu9ayAV8lxhYdo-107" value="" style="endArrow=none;html=1;rounded=0;" edge="1" parent="L259wKFu9ayAV8lxhYdo-257">
          <mxGeometry width="50" height="50" relative="1" as="geometry">
            <mxPoint x="590" y="410" as="sourcePoint" />
            <mxPoint x="540" y="360" as="targetPoint" />
          </mxGeometry>
        </mxCell>
        <mxCell id="L259wKFu9ayAV8lxhYdo-108" value="" style="endArrow=none;html=1;rounded=0;" edge="1" parent="L259wKFu9ayAV8lxhYdo-257">
          <mxGeometry width="50" height="50" relative="1" as="geometry">
            <mxPoint x="430" y="430" as="sourcePoint" />
            <mxPoint x="430" y="410" as="targetPoint" />
          </mxGeometry>
        </mxCell>
        <mxCell id="L259wKFu9ayAV8lxhYdo-109" value="" style="endArrow=none;html=1;rounded=0;" edge="1" parent="L259wKFu9ayAV8lxhYdo-257">
          <mxGeometry width="50" height="50" relative="1" as="geometry">
            <mxPoint x="590" y="430" as="sourcePoint" />
            <mxPoint x="590" y="410" as="targetPoint" />
          </mxGeometry>
        </mxCell>
        <mxCell id="L259wKFu9ayAV8lxhYdo-110" value="" style="endArrow=none;html=1;rounded=0;" edge="1" parent="L259wKFu9ayAV8lxhYdo-257">
          <mxGeometry width="50" height="50" relative="1" as="geometry">
            <mxPoint x="430" y="290" as="sourcePoint" />
            <mxPoint x="430" y="270" as="targetPoint" />
          </mxGeometry>
        </mxCell>
        <mxCell id="L259wKFu9ayAV8lxhYdo-111" value="" style="endArrow=none;html=1;rounded=0;" edge="1" parent="L259wKFu9ayAV8lxhYdo-257">
          <mxGeometry width="50" height="50" relative="1" as="geometry">
            <mxPoint x="590" y="290" as="sourcePoint" />
            <mxPoint x="590" y="270" as="targetPoint" />
          </mxGeometry>
        </mxCell>
        <mxCell id="L259wKFu9ayAV8lxhYdo-112" value="" style="endArrow=none;html=1;rounded=0;" edge="1" parent="L259wKFu9ayAV8lxhYdo-257">
          <mxGeometry width="50" height="50" relative="1" as="geometry">
            <mxPoint x="520" y="360" as="sourcePoint" />
            <mxPoint x="540" y="360" as="targetPoint" />
          </mxGeometry>
        </mxCell>
        <mxCell id="L259wKFu9ayAV8lxhYdo-113" value="" style="endArrow=none;html=1;rounded=0;" edge="1" parent="L259wKFu9ayAV8lxhYdo-257">
          <mxGeometry width="50" height="50" relative="1" as="geometry">
            <mxPoint x="520" y="360" as="sourcePoint" />
            <mxPoint x="520" y="380" as="targetPoint" />
          </mxGeometry>
        </mxCell>
        <mxCell id="L259wKFu9ayAV8lxhYdo-114" value="" style="endArrow=none;html=1;rounded=0;" edge="1" parent="L259wKFu9ayAV8lxhYdo-257">
          <mxGeometry width="50" height="50" relative="1" as="geometry">
            <mxPoint x="500" y="360" as="sourcePoint" />
            <mxPoint x="500" y="380" as="targetPoint" />
          </mxGeometry>
        </mxCell>
        <mxCell id="L259wKFu9ayAV8lxhYdo-115" value="" style="endArrow=none;html=1;rounded=0;" edge="1" parent="L259wKFu9ayAV8lxhYdo-257">
          <mxGeometry width="50" height="50" relative="1" as="geometry">
            <mxPoint x="520" y="320" as="sourcePoint" />
            <mxPoint x="520" y="340" as="targetPoint" />
          </mxGeometry>
        </mxCell>
        <mxCell id="L259wKFu9ayAV8lxhYdo-116" value="" style="endArrow=none;html=1;rounded=0;" edge="1" parent="L259wKFu9ayAV8lxhYdo-257">
          <mxGeometry width="50" height="50" relative="1" as="geometry">
            <mxPoint x="500" y="320" as="sourcePoint" />
            <mxPoint x="500" y="340" as="targetPoint" />
          </mxGeometry>
        </mxCell>
        <mxCell id="L259wKFu9ayAV8lxhYdo-117" value="" style="endArrow=none;html=1;rounded=0;" edge="1" parent="L259wKFu9ayAV8lxhYdo-257">
          <mxGeometry width="50" height="50" relative="1" as="geometry">
            <mxPoint x="520" y="340" as="sourcePoint" />
            <mxPoint x="540" y="340" as="targetPoint" />
          </mxGeometry>
        </mxCell>
        <mxCell id="L259wKFu9ayAV8lxhYdo-118" value="" style="endArrow=none;html=1;rounded=0;" edge="1" parent="L259wKFu9ayAV8lxhYdo-257">
          <mxGeometry width="50" height="50" relative="1" as="geometry">
            <mxPoint x="480" y="340" as="sourcePoint" />
            <mxPoint x="500" y="340" as="targetPoint" />
          </mxGeometry>
        </mxCell>
        <mxCell id="L259wKFu9ayAV8lxhYdo-119" value="" style="endArrow=none;html=1;rounded=0;" edge="1" parent="L259wKFu9ayAV8lxhYdo-257">
          <mxGeometry width="50" height="50" relative="1" as="geometry">
            <mxPoint x="480" y="360" as="sourcePoint" />
            <mxPoint x="500" y="360" as="targetPoint" />
          </mxGeometry>
        </mxCell>
        <mxCell id="L259wKFu9ayAV8lxhYdo-120" value="" style="endArrow=none;html=1;rounded=0;" edge="1" parent="L259wKFu9ayAV8lxhYdo-257">
          <mxGeometry width="50" height="50" relative="1" as="geometry">
            <mxPoint x="520" y="100" as="sourcePoint" />
            <mxPoint x="570" y="50" as="targetPoint" />
          </mxGeometry>
        </mxCell>
        <mxCell id="L259wKFu9ayAV8lxhYdo-121" value="" style="endArrow=none;html=1;rounded=0;" edge="1" parent="L259wKFu9ayAV8lxhYdo-257">
          <mxGeometry width="50" height="50" relative="1" as="geometry">
            <mxPoint x="540" y="120" as="sourcePoint" />
            <mxPoint x="590" y="70" as="targetPoint" />
          </mxGeometry>
        </mxCell>
        <mxCell id="L259wKFu9ayAV8lxhYdo-122" value="" style="endArrow=none;html=1;rounded=0;" edge="1" parent="L259wKFu9ayAV8lxhYdo-257">
          <mxGeometry width="50" height="50" relative="1" as="geometry">
            <mxPoint x="430" y="190" as="sourcePoint" />
            <mxPoint x="480" y="140" as="targetPoint" />
          </mxGeometry>
        </mxCell>
        <mxCell id="L259wKFu9ayAV8lxhYdo-123" value="" style="endArrow=none;html=1;rounded=0;" edge="1" parent="L259wKFu9ayAV8lxhYdo-257">
          <mxGeometry width="50" height="50" relative="1" as="geometry">
            <mxPoint x="450" y="210" as="sourcePoint" />
            <mxPoint x="500" y="160" as="targetPoint" />
          </mxGeometry>
        </mxCell>
        <mxCell id="L259wKFu9ayAV8lxhYdo-124" value="" style="endArrow=none;html=1;rounded=0;" edge="1" parent="L259wKFu9ayAV8lxhYdo-257">
          <mxGeometry width="50" height="50" relative="1" as="geometry">
            <mxPoint x="480" y="120" as="sourcePoint" />
            <mxPoint x="430" y="70" as="targetPoint" />
          </mxGeometry>
        </mxCell>
        <mxCell id="L259wKFu9ayAV8lxhYdo-125" value="" style="endArrow=none;html=1;rounded=0;" edge="1" parent="L259wKFu9ayAV8lxhYdo-257">
          <mxGeometry width="50" height="50" relative="1" as="geometry">
            <mxPoint x="500" y="100" as="sourcePoint" />
            <mxPoint x="450" y="50" as="targetPoint" />
          </mxGeometry>
        </mxCell>
        <mxCell id="L259wKFu9ayAV8lxhYdo-126" value="" style="endArrow=none;html=1;rounded=0;" edge="1" parent="L259wKFu9ayAV8lxhYdo-257">
          <mxGeometry width="50" height="50" relative="1" as="geometry">
            <mxPoint x="430" y="50" as="sourcePoint" />
            <mxPoint x="450" y="50" as="targetPoint" />
          </mxGeometry>
        </mxCell>
        <mxCell id="L259wKFu9ayAV8lxhYdo-127" value="" style="endArrow=none;html=1;rounded=0;" edge="1" parent="L259wKFu9ayAV8lxhYdo-257">
          <mxGeometry width="50" height="50" relative="1" as="geometry">
            <mxPoint x="570" y="50" as="sourcePoint" />
            <mxPoint x="590" y="50" as="targetPoint" />
          </mxGeometry>
        </mxCell>
        <mxCell id="L259wKFu9ayAV8lxhYdo-128" value="" style="endArrow=none;html=1;rounded=0;" edge="1" parent="L259wKFu9ayAV8lxhYdo-257">
          <mxGeometry width="50" height="50" relative="1" as="geometry">
            <mxPoint x="430" y="210" as="sourcePoint" />
            <mxPoint x="450" y="210" as="targetPoint" />
          </mxGeometry>
        </mxCell>
        <mxCell id="L259wKFu9ayAV8lxhYdo-129" value="" style="endArrow=none;html=1;rounded=0;" edge="1" parent="L259wKFu9ayAV8lxhYdo-257">
          <mxGeometry width="50" height="50" relative="1" as="geometry">
            <mxPoint x="570" y="210" as="sourcePoint" />
            <mxPoint x="590" y="210" as="targetPoint" />
          </mxGeometry>
        </mxCell>
        <mxCell id="L259wKFu9ayAV8lxhYdo-130" value="" style="endArrow=none;html=1;rounded=0;" edge="1" parent="L259wKFu9ayAV8lxhYdo-257">
          <mxGeometry width="50" height="50" relative="1" as="geometry">
            <mxPoint x="570" y="210" as="sourcePoint" />
            <mxPoint x="520" y="160" as="targetPoint" />
          </mxGeometry>
        </mxCell>
        <mxCell id="L259wKFu9ayAV8lxhYdo-131" value="" style="endArrow=none;html=1;rounded=0;" edge="1" parent="L259wKFu9ayAV8lxhYdo-257">
          <mxGeometry width="50" height="50" relative="1" as="geometry">
            <mxPoint x="590" y="190" as="sourcePoint" />
            <mxPoint x="540" y="140" as="targetPoint" />
          </mxGeometry>
        </mxCell>
        <mxCell id="L259wKFu9ayAV8lxhYdo-132" value="" style="endArrow=none;html=1;rounded=0;" edge="1" parent="L259wKFu9ayAV8lxhYdo-257">
          <mxGeometry width="50" height="50" relative="1" as="geometry">
            <mxPoint x="430" y="210" as="sourcePoint" />
            <mxPoint x="430" y="190" as="targetPoint" />
          </mxGeometry>
        </mxCell>
        <mxCell id="L259wKFu9ayAV8lxhYdo-133" value="" style="endArrow=none;html=1;rounded=0;" edge="1" parent="L259wKFu9ayAV8lxhYdo-257">
          <mxGeometry width="50" height="50" relative="1" as="geometry">
            <mxPoint x="590" y="210" as="sourcePoint" />
            <mxPoint x="590" y="190" as="targetPoint" />
          </mxGeometry>
        </mxCell>
        <mxCell id="L259wKFu9ayAV8lxhYdo-134" value="" style="endArrow=none;html=1;rounded=0;" edge="1" parent="L259wKFu9ayAV8lxhYdo-257">
          <mxGeometry width="50" height="50" relative="1" as="geometry">
            <mxPoint x="430" y="70" as="sourcePoint" />
            <mxPoint x="430" y="50" as="targetPoint" />
          </mxGeometry>
        </mxCell>
        <mxCell id="L259wKFu9ayAV8lxhYdo-135" value="" style="endArrow=none;html=1;rounded=0;" edge="1" parent="L259wKFu9ayAV8lxhYdo-257">
          <mxGeometry width="50" height="50" relative="1" as="geometry">
            <mxPoint x="590" y="70" as="sourcePoint" />
            <mxPoint x="590" y="50" as="targetPoint" />
          </mxGeometry>
        </mxCell>
        <mxCell id="L259wKFu9ayAV8lxhYdo-136" value="" style="endArrow=none;html=1;rounded=0;" edge="1" parent="L259wKFu9ayAV8lxhYdo-257">
          <mxGeometry width="50" height="50" relative="1" as="geometry">
            <mxPoint x="520" y="140" as="sourcePoint" />
            <mxPoint x="540" y="140" as="targetPoint" />
          </mxGeometry>
        </mxCell>
        <mxCell id="L259wKFu9ayAV8lxhYdo-137" value="" style="endArrow=none;html=1;rounded=0;" edge="1" parent="L259wKFu9ayAV8lxhYdo-257">
          <mxGeometry width="50" height="50" relative="1" as="geometry">
            <mxPoint x="520" y="140" as="sourcePoint" />
            <mxPoint x="520" y="160" as="targetPoint" />
          </mxGeometry>
        </mxCell>
        <mxCell id="L259wKFu9ayAV8lxhYdo-138" value="" style="endArrow=none;html=1;rounded=0;" edge="1" parent="L259wKFu9ayAV8lxhYdo-257">
          <mxGeometry width="50" height="50" relative="1" as="geometry">
            <mxPoint x="500" y="140" as="sourcePoint" />
            <mxPoint x="500" y="160" as="targetPoint" />
          </mxGeometry>
        </mxCell>
        <mxCell id="L259wKFu9ayAV8lxhYdo-139" value="" style="endArrow=none;html=1;rounded=0;" edge="1" parent="L259wKFu9ayAV8lxhYdo-257">
          <mxGeometry width="50" height="50" relative="1" as="geometry">
            <mxPoint x="520" y="100" as="sourcePoint" />
            <mxPoint x="520" y="120" as="targetPoint" />
          </mxGeometry>
        </mxCell>
        <mxCell id="L259wKFu9ayAV8lxhYdo-140" value="" style="endArrow=none;html=1;rounded=0;" edge="1" parent="L259wKFu9ayAV8lxhYdo-257">
          <mxGeometry width="50" height="50" relative="1" as="geometry">
            <mxPoint x="500" y="100" as="sourcePoint" />
            <mxPoint x="500" y="120" as="targetPoint" />
          </mxGeometry>
        </mxCell>
        <mxCell id="L259wKFu9ayAV8lxhYdo-141" value="" style="endArrow=none;html=1;rounded=0;" edge="1" parent="L259wKFu9ayAV8lxhYdo-257">
          <mxGeometry width="50" height="50" relative="1" as="geometry">
            <mxPoint x="520" y="120" as="sourcePoint" />
            <mxPoint x="540" y="120" as="targetPoint" />
          </mxGeometry>
        </mxCell>
        <mxCell id="L259wKFu9ayAV8lxhYdo-142" value="" style="endArrow=none;html=1;rounded=0;" edge="1" parent="L259wKFu9ayAV8lxhYdo-257">
          <mxGeometry width="50" height="50" relative="1" as="geometry">
            <mxPoint x="480" y="120" as="sourcePoint" />
            <mxPoint x="500" y="120" as="targetPoint" />
          </mxGeometry>
        </mxCell>
        <mxCell id="L259wKFu9ayAV8lxhYdo-143" value="" style="endArrow=none;html=1;rounded=0;" edge="1" parent="L259wKFu9ayAV8lxhYdo-257">
          <mxGeometry width="50" height="50" relative="1" as="geometry">
            <mxPoint x="480" y="140" as="sourcePoint" />
            <mxPoint x="500" y="140" as="targetPoint" />
          </mxGeometry>
        </mxCell>
        <mxCell id="L259wKFu9ayAV8lxhYdo-144" value="" style="ellipse;whiteSpace=wrap;html=1;aspect=fixed;" vertex="1" parent="L259wKFu9ayAV8lxhYdo-257">
          <mxGeometry x="690" y="420" width="40" height="40" as="geometry" />
        </mxCell>
        <mxCell id="L259wKFu9ayAV8lxhYdo-145" value="" style="verticalLabelPosition=bottom;verticalAlign=top;html=1;shape=hexagon;perimeter=hexagonPerimeter2;arcSize=6;size=0.1;" vertex="1" parent="L259wKFu9ayAV8lxhYdo-257">
          <mxGeometry x="790" width="200" height="40" as="geometry" />
        </mxCell>
        <mxCell id="L259wKFu9ayAV8lxhYdo-146" value="" style="verticalLabelPosition=bottom;verticalAlign=top;html=1;shape=hexagon;perimeter=hexagonPerimeter2;arcSize=6;size=0.1;rotation=90;" vertex="1" parent="L259wKFu9ayAV8lxhYdo-257">
          <mxGeometry x="680" y="110" width="200" height="40" as="geometry" />
        </mxCell>
        <mxCell id="L259wKFu9ayAV8lxhYdo-147" value="" style="verticalLabelPosition=bottom;verticalAlign=top;html=1;shape=hexagon;perimeter=hexagonPerimeter2;arcSize=6;size=0.1;rotation=90;" vertex="1" parent="L259wKFu9ayAV8lxhYdo-257">
          <mxGeometry x="900" y="110" width="200" height="40" as="geometry" />
        </mxCell>
        <mxCell id="L259wKFu9ayAV8lxhYdo-148" value="" style="verticalLabelPosition=bottom;verticalAlign=top;html=1;shape=hexagon;perimeter=hexagonPerimeter2;arcSize=6;size=0.1;" vertex="1" parent="L259wKFu9ayAV8lxhYdo-257">
          <mxGeometry x="790" y="220" width="200" height="40" as="geometry" />
        </mxCell>
        <mxCell id="L259wKFu9ayAV8lxhYdo-149" value="" style="verticalLabelPosition=bottom;verticalAlign=top;html=1;shape=hexagon;perimeter=hexagonPerimeter2;arcSize=6;size=0.1;rotation=90;" vertex="1" parent="L259wKFu9ayAV8lxhYdo-257">
          <mxGeometry x="680" y="330" width="200" height="40" as="geometry" />
        </mxCell>
        <mxCell id="L259wKFu9ayAV8lxhYdo-150" value="" style="verticalLabelPosition=bottom;verticalAlign=top;html=1;shape=hexagon;perimeter=hexagonPerimeter2;arcSize=6;size=0.1;rotation=90;" vertex="1" parent="L259wKFu9ayAV8lxhYdo-257">
          <mxGeometry x="900" y="330" width="200" height="40" as="geometry" />
        </mxCell>
        <mxCell id="L259wKFu9ayAV8lxhYdo-151" value="" style="verticalLabelPosition=bottom;verticalAlign=top;html=1;shape=hexagon;perimeter=hexagonPerimeter2;arcSize=6;size=0.1;" vertex="1" parent="L259wKFu9ayAV8lxhYdo-257">
          <mxGeometry x="790" y="440" width="200" height="40" as="geometry" />
        </mxCell>
        <mxCell id="L259wKFu9ayAV8lxhYdo-152" value="" style="endArrow=none;html=1;rounded=0;" edge="1" parent="L259wKFu9ayAV8lxhYdo-257">
          <mxGeometry width="50" height="50" relative="1" as="geometry">
            <mxPoint x="900" y="320" as="sourcePoint" />
            <mxPoint x="950" y="270" as="targetPoint" />
          </mxGeometry>
        </mxCell>
        <mxCell id="L259wKFu9ayAV8lxhYdo-153" value="" style="endArrow=none;html=1;rounded=0;" edge="1" parent="L259wKFu9ayAV8lxhYdo-257">
          <mxGeometry width="50" height="50" relative="1" as="geometry">
            <mxPoint x="920" y="340" as="sourcePoint" />
            <mxPoint x="970" y="290" as="targetPoint" />
          </mxGeometry>
        </mxCell>
        <mxCell id="L259wKFu9ayAV8lxhYdo-154" value="" style="endArrow=none;html=1;rounded=0;" edge="1" parent="L259wKFu9ayAV8lxhYdo-257">
          <mxGeometry width="50" height="50" relative="1" as="geometry">
            <mxPoint x="810" y="410" as="sourcePoint" />
            <mxPoint x="860" y="360" as="targetPoint" />
          </mxGeometry>
        </mxCell>
        <mxCell id="L259wKFu9ayAV8lxhYdo-155" value="" style="endArrow=none;html=1;rounded=0;" edge="1" parent="L259wKFu9ayAV8lxhYdo-257">
          <mxGeometry width="50" height="50" relative="1" as="geometry">
            <mxPoint x="830" y="430" as="sourcePoint" />
            <mxPoint x="880" y="380" as="targetPoint" />
          </mxGeometry>
        </mxCell>
        <mxCell id="L259wKFu9ayAV8lxhYdo-156" value="" style="endArrow=none;html=1;rounded=0;" edge="1" parent="L259wKFu9ayAV8lxhYdo-257">
          <mxGeometry width="50" height="50" relative="1" as="geometry">
            <mxPoint x="860" y="340" as="sourcePoint" />
            <mxPoint x="810" y="290" as="targetPoint" />
          </mxGeometry>
        </mxCell>
        <mxCell id="L259wKFu9ayAV8lxhYdo-157" value="" style="endArrow=none;html=1;rounded=0;" edge="1" parent="L259wKFu9ayAV8lxhYdo-257">
          <mxGeometry width="50" height="50" relative="1" as="geometry">
            <mxPoint x="880" y="320" as="sourcePoint" />
            <mxPoint x="830" y="270" as="targetPoint" />
          </mxGeometry>
        </mxCell>
        <mxCell id="L259wKFu9ayAV8lxhYdo-158" value="" style="endArrow=none;html=1;rounded=0;" edge="1" parent="L259wKFu9ayAV8lxhYdo-257">
          <mxGeometry width="50" height="50" relative="1" as="geometry">
            <mxPoint x="810" y="270" as="sourcePoint" />
            <mxPoint x="830" y="270" as="targetPoint" />
          </mxGeometry>
        </mxCell>
        <mxCell id="L259wKFu9ayAV8lxhYdo-159" value="" style="endArrow=none;html=1;rounded=0;" edge="1" parent="L259wKFu9ayAV8lxhYdo-257">
          <mxGeometry width="50" height="50" relative="1" as="geometry">
            <mxPoint x="950" y="270" as="sourcePoint" />
            <mxPoint x="970" y="270" as="targetPoint" />
          </mxGeometry>
        </mxCell>
        <mxCell id="L259wKFu9ayAV8lxhYdo-160" value="" style="endArrow=none;html=1;rounded=0;" edge="1" parent="L259wKFu9ayAV8lxhYdo-257">
          <mxGeometry width="50" height="50" relative="1" as="geometry">
            <mxPoint x="810" y="430" as="sourcePoint" />
            <mxPoint x="830" y="430" as="targetPoint" />
          </mxGeometry>
        </mxCell>
        <mxCell id="L259wKFu9ayAV8lxhYdo-161" value="" style="endArrow=none;html=1;rounded=0;" edge="1" parent="L259wKFu9ayAV8lxhYdo-257">
          <mxGeometry width="50" height="50" relative="1" as="geometry">
            <mxPoint x="950" y="430" as="sourcePoint" />
            <mxPoint x="970" y="430" as="targetPoint" />
          </mxGeometry>
        </mxCell>
        <mxCell id="L259wKFu9ayAV8lxhYdo-162" value="" style="endArrow=none;html=1;rounded=0;" edge="1" parent="L259wKFu9ayAV8lxhYdo-257">
          <mxGeometry width="50" height="50" relative="1" as="geometry">
            <mxPoint x="950" y="430" as="sourcePoint" />
            <mxPoint x="900" y="380" as="targetPoint" />
          </mxGeometry>
        </mxCell>
        <mxCell id="L259wKFu9ayAV8lxhYdo-163" value="" style="endArrow=none;html=1;rounded=0;" edge="1" parent="L259wKFu9ayAV8lxhYdo-257">
          <mxGeometry width="50" height="50" relative="1" as="geometry">
            <mxPoint x="970" y="410" as="sourcePoint" />
            <mxPoint x="920" y="360" as="targetPoint" />
          </mxGeometry>
        </mxCell>
        <mxCell id="L259wKFu9ayAV8lxhYdo-164" value="" style="endArrow=none;html=1;rounded=0;" edge="1" parent="L259wKFu9ayAV8lxhYdo-257">
          <mxGeometry width="50" height="50" relative="1" as="geometry">
            <mxPoint x="810" y="430" as="sourcePoint" />
            <mxPoint x="810" y="410" as="targetPoint" />
          </mxGeometry>
        </mxCell>
        <mxCell id="L259wKFu9ayAV8lxhYdo-165" value="" style="endArrow=none;html=1;rounded=0;" edge="1" parent="L259wKFu9ayAV8lxhYdo-257">
          <mxGeometry width="50" height="50" relative="1" as="geometry">
            <mxPoint x="970" y="430" as="sourcePoint" />
            <mxPoint x="970" y="410" as="targetPoint" />
          </mxGeometry>
        </mxCell>
        <mxCell id="L259wKFu9ayAV8lxhYdo-166" value="" style="endArrow=none;html=1;rounded=0;" edge="1" parent="L259wKFu9ayAV8lxhYdo-257">
          <mxGeometry width="50" height="50" relative="1" as="geometry">
            <mxPoint x="810" y="290" as="sourcePoint" />
            <mxPoint x="810" y="270" as="targetPoint" />
          </mxGeometry>
        </mxCell>
        <mxCell id="L259wKFu9ayAV8lxhYdo-167" value="" style="endArrow=none;html=1;rounded=0;" edge="1" parent="L259wKFu9ayAV8lxhYdo-257">
          <mxGeometry width="50" height="50" relative="1" as="geometry">
            <mxPoint x="970" y="290" as="sourcePoint" />
            <mxPoint x="970" y="270" as="targetPoint" />
          </mxGeometry>
        </mxCell>
        <mxCell id="L259wKFu9ayAV8lxhYdo-168" value="" style="endArrow=none;html=1;rounded=0;" edge="1" parent="L259wKFu9ayAV8lxhYdo-257">
          <mxGeometry width="50" height="50" relative="1" as="geometry">
            <mxPoint x="900" y="360" as="sourcePoint" />
            <mxPoint x="920" y="360" as="targetPoint" />
          </mxGeometry>
        </mxCell>
        <mxCell id="L259wKFu9ayAV8lxhYdo-169" value="" style="endArrow=none;html=1;rounded=0;" edge="1" parent="L259wKFu9ayAV8lxhYdo-257">
          <mxGeometry width="50" height="50" relative="1" as="geometry">
            <mxPoint x="900" y="360" as="sourcePoint" />
            <mxPoint x="900" y="380" as="targetPoint" />
          </mxGeometry>
        </mxCell>
        <mxCell id="L259wKFu9ayAV8lxhYdo-170" value="" style="endArrow=none;html=1;rounded=0;" edge="1" parent="L259wKFu9ayAV8lxhYdo-257">
          <mxGeometry width="50" height="50" relative="1" as="geometry">
            <mxPoint x="880" y="360" as="sourcePoint" />
            <mxPoint x="880" y="380" as="targetPoint" />
          </mxGeometry>
        </mxCell>
        <mxCell id="L259wKFu9ayAV8lxhYdo-171" value="" style="endArrow=none;html=1;rounded=0;" edge="1" parent="L259wKFu9ayAV8lxhYdo-257">
          <mxGeometry width="50" height="50" relative="1" as="geometry">
            <mxPoint x="900" y="320" as="sourcePoint" />
            <mxPoint x="900" y="340" as="targetPoint" />
          </mxGeometry>
        </mxCell>
        <mxCell id="L259wKFu9ayAV8lxhYdo-172" value="" style="endArrow=none;html=1;rounded=0;" edge="1" parent="L259wKFu9ayAV8lxhYdo-257">
          <mxGeometry width="50" height="50" relative="1" as="geometry">
            <mxPoint x="880" y="320" as="sourcePoint" />
            <mxPoint x="880" y="340" as="targetPoint" />
          </mxGeometry>
        </mxCell>
        <mxCell id="L259wKFu9ayAV8lxhYdo-173" value="" style="endArrow=none;html=1;rounded=0;" edge="1" parent="L259wKFu9ayAV8lxhYdo-257">
          <mxGeometry width="50" height="50" relative="1" as="geometry">
            <mxPoint x="900" y="340" as="sourcePoint" />
            <mxPoint x="920" y="340" as="targetPoint" />
          </mxGeometry>
        </mxCell>
        <mxCell id="L259wKFu9ayAV8lxhYdo-174" value="" style="endArrow=none;html=1;rounded=0;" edge="1" parent="L259wKFu9ayAV8lxhYdo-257">
          <mxGeometry width="50" height="50" relative="1" as="geometry">
            <mxPoint x="860" y="340" as="sourcePoint" />
            <mxPoint x="880" y="340" as="targetPoint" />
          </mxGeometry>
        </mxCell>
        <mxCell id="L259wKFu9ayAV8lxhYdo-175" value="" style="endArrow=none;html=1;rounded=0;" edge="1" parent="L259wKFu9ayAV8lxhYdo-257">
          <mxGeometry width="50" height="50" relative="1" as="geometry">
            <mxPoint x="860" y="360" as="sourcePoint" />
            <mxPoint x="880" y="360" as="targetPoint" />
          </mxGeometry>
        </mxCell>
        <mxCell id="L259wKFu9ayAV8lxhYdo-176" value="" style="endArrow=none;html=1;rounded=0;" edge="1" parent="L259wKFu9ayAV8lxhYdo-257">
          <mxGeometry width="50" height="50" relative="1" as="geometry">
            <mxPoint x="900" y="100" as="sourcePoint" />
            <mxPoint x="950" y="50" as="targetPoint" />
          </mxGeometry>
        </mxCell>
        <mxCell id="L259wKFu9ayAV8lxhYdo-177" value="" style="endArrow=none;html=1;rounded=0;" edge="1" parent="L259wKFu9ayAV8lxhYdo-257">
          <mxGeometry width="50" height="50" relative="1" as="geometry">
            <mxPoint x="920" y="120" as="sourcePoint" />
            <mxPoint x="970" y="70" as="targetPoint" />
          </mxGeometry>
        </mxCell>
        <mxCell id="L259wKFu9ayAV8lxhYdo-178" value="" style="endArrow=none;html=1;rounded=0;" edge="1" parent="L259wKFu9ayAV8lxhYdo-257">
          <mxGeometry width="50" height="50" relative="1" as="geometry">
            <mxPoint x="810" y="190" as="sourcePoint" />
            <mxPoint x="860" y="140" as="targetPoint" />
          </mxGeometry>
        </mxCell>
        <mxCell id="L259wKFu9ayAV8lxhYdo-179" value="" style="endArrow=none;html=1;rounded=0;" edge="1" parent="L259wKFu9ayAV8lxhYdo-257">
          <mxGeometry width="50" height="50" relative="1" as="geometry">
            <mxPoint x="830" y="210" as="sourcePoint" />
            <mxPoint x="880" y="160" as="targetPoint" />
          </mxGeometry>
        </mxCell>
        <mxCell id="L259wKFu9ayAV8lxhYdo-180" value="" style="endArrow=none;html=1;rounded=0;" edge="1" parent="L259wKFu9ayAV8lxhYdo-257">
          <mxGeometry width="50" height="50" relative="1" as="geometry">
            <mxPoint x="860" y="120" as="sourcePoint" />
            <mxPoint x="810" y="70" as="targetPoint" />
          </mxGeometry>
        </mxCell>
        <mxCell id="L259wKFu9ayAV8lxhYdo-181" value="" style="endArrow=none;html=1;rounded=0;" edge="1" parent="L259wKFu9ayAV8lxhYdo-257">
          <mxGeometry width="50" height="50" relative="1" as="geometry">
            <mxPoint x="880" y="100" as="sourcePoint" />
            <mxPoint x="830" y="50" as="targetPoint" />
          </mxGeometry>
        </mxCell>
        <mxCell id="L259wKFu9ayAV8lxhYdo-182" value="" style="endArrow=none;html=1;rounded=0;" edge="1" parent="L259wKFu9ayAV8lxhYdo-257">
          <mxGeometry width="50" height="50" relative="1" as="geometry">
            <mxPoint x="810" y="50" as="sourcePoint" />
            <mxPoint x="830" y="50" as="targetPoint" />
          </mxGeometry>
        </mxCell>
        <mxCell id="L259wKFu9ayAV8lxhYdo-183" value="" style="endArrow=none;html=1;rounded=0;" edge="1" parent="L259wKFu9ayAV8lxhYdo-257">
          <mxGeometry width="50" height="50" relative="1" as="geometry">
            <mxPoint x="950" y="50" as="sourcePoint" />
            <mxPoint x="970" y="50" as="targetPoint" />
          </mxGeometry>
        </mxCell>
        <mxCell id="L259wKFu9ayAV8lxhYdo-184" value="" style="endArrow=none;html=1;rounded=0;" edge="1" parent="L259wKFu9ayAV8lxhYdo-257">
          <mxGeometry width="50" height="50" relative="1" as="geometry">
            <mxPoint x="810" y="210" as="sourcePoint" />
            <mxPoint x="830" y="210" as="targetPoint" />
          </mxGeometry>
        </mxCell>
        <mxCell id="L259wKFu9ayAV8lxhYdo-185" value="" style="endArrow=none;html=1;rounded=0;" edge="1" parent="L259wKFu9ayAV8lxhYdo-257">
          <mxGeometry width="50" height="50" relative="1" as="geometry">
            <mxPoint x="950" y="210" as="sourcePoint" />
            <mxPoint x="970" y="210" as="targetPoint" />
          </mxGeometry>
        </mxCell>
        <mxCell id="L259wKFu9ayAV8lxhYdo-186" value="" style="endArrow=none;html=1;rounded=0;" edge="1" parent="L259wKFu9ayAV8lxhYdo-257">
          <mxGeometry width="50" height="50" relative="1" as="geometry">
            <mxPoint x="950" y="210" as="sourcePoint" />
            <mxPoint x="900" y="160" as="targetPoint" />
          </mxGeometry>
        </mxCell>
        <mxCell id="L259wKFu9ayAV8lxhYdo-187" value="" style="endArrow=none;html=1;rounded=0;" edge="1" parent="L259wKFu9ayAV8lxhYdo-257">
          <mxGeometry width="50" height="50" relative="1" as="geometry">
            <mxPoint x="970" y="190" as="sourcePoint" />
            <mxPoint x="920" y="140" as="targetPoint" />
          </mxGeometry>
        </mxCell>
        <mxCell id="L259wKFu9ayAV8lxhYdo-188" value="" style="endArrow=none;html=1;rounded=0;" edge="1" parent="L259wKFu9ayAV8lxhYdo-257">
          <mxGeometry width="50" height="50" relative="1" as="geometry">
            <mxPoint x="810" y="210" as="sourcePoint" />
            <mxPoint x="810" y="190" as="targetPoint" />
          </mxGeometry>
        </mxCell>
        <mxCell id="L259wKFu9ayAV8lxhYdo-189" value="" style="endArrow=none;html=1;rounded=0;" edge="1" parent="L259wKFu9ayAV8lxhYdo-257">
          <mxGeometry width="50" height="50" relative="1" as="geometry">
            <mxPoint x="970" y="210" as="sourcePoint" />
            <mxPoint x="970" y="190" as="targetPoint" />
          </mxGeometry>
        </mxCell>
        <mxCell id="L259wKFu9ayAV8lxhYdo-190" value="" style="endArrow=none;html=1;rounded=0;" edge="1" parent="L259wKFu9ayAV8lxhYdo-257">
          <mxGeometry width="50" height="50" relative="1" as="geometry">
            <mxPoint x="810" y="70" as="sourcePoint" />
            <mxPoint x="810" y="50" as="targetPoint" />
          </mxGeometry>
        </mxCell>
        <mxCell id="L259wKFu9ayAV8lxhYdo-191" value="" style="endArrow=none;html=1;rounded=0;" edge="1" parent="L259wKFu9ayAV8lxhYdo-257">
          <mxGeometry width="50" height="50" relative="1" as="geometry">
            <mxPoint x="970" y="70" as="sourcePoint" />
            <mxPoint x="970" y="50" as="targetPoint" />
          </mxGeometry>
        </mxCell>
        <mxCell id="L259wKFu9ayAV8lxhYdo-192" value="" style="endArrow=none;html=1;rounded=0;" edge="1" parent="L259wKFu9ayAV8lxhYdo-257">
          <mxGeometry width="50" height="50" relative="1" as="geometry">
            <mxPoint x="900" y="140" as="sourcePoint" />
            <mxPoint x="920" y="140" as="targetPoint" />
          </mxGeometry>
        </mxCell>
        <mxCell id="L259wKFu9ayAV8lxhYdo-193" value="" style="endArrow=none;html=1;rounded=0;" edge="1" parent="L259wKFu9ayAV8lxhYdo-257">
          <mxGeometry width="50" height="50" relative="1" as="geometry">
            <mxPoint x="900" y="140" as="sourcePoint" />
            <mxPoint x="900" y="160" as="targetPoint" />
          </mxGeometry>
        </mxCell>
        <mxCell id="L259wKFu9ayAV8lxhYdo-194" value="" style="endArrow=none;html=1;rounded=0;" edge="1" parent="L259wKFu9ayAV8lxhYdo-257">
          <mxGeometry width="50" height="50" relative="1" as="geometry">
            <mxPoint x="880" y="140" as="sourcePoint" />
            <mxPoint x="880" y="160" as="targetPoint" />
          </mxGeometry>
        </mxCell>
        <mxCell id="L259wKFu9ayAV8lxhYdo-195" value="" style="endArrow=none;html=1;rounded=0;" edge="1" parent="L259wKFu9ayAV8lxhYdo-257">
          <mxGeometry width="50" height="50" relative="1" as="geometry">
            <mxPoint x="900" y="100" as="sourcePoint" />
            <mxPoint x="900" y="120" as="targetPoint" />
          </mxGeometry>
        </mxCell>
        <mxCell id="L259wKFu9ayAV8lxhYdo-196" value="" style="endArrow=none;html=1;rounded=0;" edge="1" parent="L259wKFu9ayAV8lxhYdo-257">
          <mxGeometry width="50" height="50" relative="1" as="geometry">
            <mxPoint x="880" y="100" as="sourcePoint" />
            <mxPoint x="880" y="120" as="targetPoint" />
          </mxGeometry>
        </mxCell>
        <mxCell id="L259wKFu9ayAV8lxhYdo-197" value="" style="endArrow=none;html=1;rounded=0;" edge="1" parent="L259wKFu9ayAV8lxhYdo-257">
          <mxGeometry width="50" height="50" relative="1" as="geometry">
            <mxPoint x="900" y="120" as="sourcePoint" />
            <mxPoint x="920" y="120" as="targetPoint" />
          </mxGeometry>
        </mxCell>
        <mxCell id="L259wKFu9ayAV8lxhYdo-198" value="" style="endArrow=none;html=1;rounded=0;" edge="1" parent="L259wKFu9ayAV8lxhYdo-257">
          <mxGeometry width="50" height="50" relative="1" as="geometry">
            <mxPoint x="860" y="120" as="sourcePoint" />
            <mxPoint x="880" y="120" as="targetPoint" />
          </mxGeometry>
        </mxCell>
        <mxCell id="L259wKFu9ayAV8lxhYdo-199" value="" style="endArrow=none;html=1;rounded=0;" edge="1" parent="L259wKFu9ayAV8lxhYdo-257">
          <mxGeometry width="50" height="50" relative="1" as="geometry">
            <mxPoint x="860" y="140" as="sourcePoint" />
            <mxPoint x="880" y="140" as="targetPoint" />
          </mxGeometry>
        </mxCell>
        <mxCell id="L259wKFu9ayAV8lxhYdo-200" value="" style="ellipse;whiteSpace=wrap;html=1;aspect=fixed;" vertex="1" parent="L259wKFu9ayAV8lxhYdo-257">
          <mxGeometry x="1070" y="420" width="40" height="40" as="geometry" />
        </mxCell>
        <mxCell id="L259wKFu9ayAV8lxhYdo-201" value="" style="verticalLabelPosition=bottom;verticalAlign=top;html=1;shape=hexagon;perimeter=hexagonPerimeter2;arcSize=6;size=0.1;" vertex="1" parent="L259wKFu9ayAV8lxhYdo-257">
          <mxGeometry x="1170" width="200" height="40" as="geometry" />
        </mxCell>
        <mxCell id="L259wKFu9ayAV8lxhYdo-202" value="" style="verticalLabelPosition=bottom;verticalAlign=top;html=1;shape=hexagon;perimeter=hexagonPerimeter2;arcSize=6;size=0.1;rotation=90;" vertex="1" parent="L259wKFu9ayAV8lxhYdo-257">
          <mxGeometry x="1060" y="110" width="200" height="40" as="geometry" />
        </mxCell>
        <mxCell id="L259wKFu9ayAV8lxhYdo-203" value="" style="verticalLabelPosition=bottom;verticalAlign=top;html=1;shape=hexagon;perimeter=hexagonPerimeter2;arcSize=6;size=0.1;rotation=90;" vertex="1" parent="L259wKFu9ayAV8lxhYdo-257">
          <mxGeometry x="1280" y="110" width="200" height="40" as="geometry" />
        </mxCell>
        <mxCell id="L259wKFu9ayAV8lxhYdo-204" value="" style="verticalLabelPosition=bottom;verticalAlign=top;html=1;shape=hexagon;perimeter=hexagonPerimeter2;arcSize=6;size=0.1;" vertex="1" parent="L259wKFu9ayAV8lxhYdo-257">
          <mxGeometry x="1170" y="220" width="200" height="40" as="geometry" />
        </mxCell>
        <mxCell id="L259wKFu9ayAV8lxhYdo-205" value="" style="verticalLabelPosition=bottom;verticalAlign=top;html=1;shape=hexagon;perimeter=hexagonPerimeter2;arcSize=6;size=0.1;rotation=90;" vertex="1" parent="L259wKFu9ayAV8lxhYdo-257">
          <mxGeometry x="1060" y="330" width="200" height="40" as="geometry" />
        </mxCell>
        <mxCell id="L259wKFu9ayAV8lxhYdo-206" value="" style="verticalLabelPosition=bottom;verticalAlign=top;html=1;shape=hexagon;perimeter=hexagonPerimeter2;arcSize=6;size=0.1;rotation=90;" vertex="1" parent="L259wKFu9ayAV8lxhYdo-257">
          <mxGeometry x="1280" y="330" width="200" height="40" as="geometry" />
        </mxCell>
        <mxCell id="L259wKFu9ayAV8lxhYdo-207" value="" style="verticalLabelPosition=bottom;verticalAlign=top;html=1;shape=hexagon;perimeter=hexagonPerimeter2;arcSize=6;size=0.1;" vertex="1" parent="L259wKFu9ayAV8lxhYdo-257">
          <mxGeometry x="1170" y="440" width="200" height="40" as="geometry" />
        </mxCell>
        <mxCell id="L259wKFu9ayAV8lxhYdo-208" value="" style="endArrow=none;html=1;rounded=0;" edge="1" parent="L259wKFu9ayAV8lxhYdo-257">
          <mxGeometry width="50" height="50" relative="1" as="geometry">
            <mxPoint x="1280" y="320" as="sourcePoint" />
            <mxPoint x="1330" y="270" as="targetPoint" />
          </mxGeometry>
        </mxCell>
        <mxCell id="L259wKFu9ayAV8lxhYdo-209" value="" style="endArrow=none;html=1;rounded=0;" edge="1" parent="L259wKFu9ayAV8lxhYdo-257">
          <mxGeometry width="50" height="50" relative="1" as="geometry">
            <mxPoint x="1300" y="340" as="sourcePoint" />
            <mxPoint x="1350" y="290" as="targetPoint" />
          </mxGeometry>
        </mxCell>
        <mxCell id="L259wKFu9ayAV8lxhYdo-210" value="" style="endArrow=none;html=1;rounded=0;" edge="1" parent="L259wKFu9ayAV8lxhYdo-257">
          <mxGeometry width="50" height="50" relative="1" as="geometry">
            <mxPoint x="1190" y="410" as="sourcePoint" />
            <mxPoint x="1240" y="360" as="targetPoint" />
          </mxGeometry>
        </mxCell>
        <mxCell id="L259wKFu9ayAV8lxhYdo-211" value="" style="endArrow=none;html=1;rounded=0;" edge="1" parent="L259wKFu9ayAV8lxhYdo-257">
          <mxGeometry width="50" height="50" relative="1" as="geometry">
            <mxPoint x="1210" y="430" as="sourcePoint" />
            <mxPoint x="1260" y="380" as="targetPoint" />
          </mxGeometry>
        </mxCell>
        <mxCell id="L259wKFu9ayAV8lxhYdo-212" value="" style="endArrow=none;html=1;rounded=0;" edge="1" parent="L259wKFu9ayAV8lxhYdo-257">
          <mxGeometry width="50" height="50" relative="1" as="geometry">
            <mxPoint x="1240" y="340" as="sourcePoint" />
            <mxPoint x="1190" y="290" as="targetPoint" />
          </mxGeometry>
        </mxCell>
        <mxCell id="L259wKFu9ayAV8lxhYdo-213" value="" style="endArrow=none;html=1;rounded=0;" edge="1" parent="L259wKFu9ayAV8lxhYdo-257">
          <mxGeometry width="50" height="50" relative="1" as="geometry">
            <mxPoint x="1260" y="320" as="sourcePoint" />
            <mxPoint x="1210" y="270" as="targetPoint" />
          </mxGeometry>
        </mxCell>
        <mxCell id="L259wKFu9ayAV8lxhYdo-214" value="" style="endArrow=none;html=1;rounded=0;" edge="1" parent="L259wKFu9ayAV8lxhYdo-257">
          <mxGeometry width="50" height="50" relative="1" as="geometry">
            <mxPoint x="1190" y="270" as="sourcePoint" />
            <mxPoint x="1210" y="270" as="targetPoint" />
          </mxGeometry>
        </mxCell>
        <mxCell id="L259wKFu9ayAV8lxhYdo-215" value="" style="endArrow=none;html=1;rounded=0;" edge="1" parent="L259wKFu9ayAV8lxhYdo-257">
          <mxGeometry width="50" height="50" relative="1" as="geometry">
            <mxPoint x="1330" y="270" as="sourcePoint" />
            <mxPoint x="1350" y="270" as="targetPoint" />
          </mxGeometry>
        </mxCell>
        <mxCell id="L259wKFu9ayAV8lxhYdo-216" value="" style="endArrow=none;html=1;rounded=0;" edge="1" parent="L259wKFu9ayAV8lxhYdo-257">
          <mxGeometry width="50" height="50" relative="1" as="geometry">
            <mxPoint x="1190" y="430" as="sourcePoint" />
            <mxPoint x="1210" y="430" as="targetPoint" />
          </mxGeometry>
        </mxCell>
        <mxCell id="L259wKFu9ayAV8lxhYdo-217" value="" style="endArrow=none;html=1;rounded=0;" edge="1" parent="L259wKFu9ayAV8lxhYdo-257">
          <mxGeometry width="50" height="50" relative="1" as="geometry">
            <mxPoint x="1330" y="430" as="sourcePoint" />
            <mxPoint x="1350" y="430" as="targetPoint" />
          </mxGeometry>
        </mxCell>
        <mxCell id="L259wKFu9ayAV8lxhYdo-218" value="" style="endArrow=none;html=1;rounded=0;" edge="1" parent="L259wKFu9ayAV8lxhYdo-257">
          <mxGeometry width="50" height="50" relative="1" as="geometry">
            <mxPoint x="1330" y="430" as="sourcePoint" />
            <mxPoint x="1280" y="380" as="targetPoint" />
          </mxGeometry>
        </mxCell>
        <mxCell id="L259wKFu9ayAV8lxhYdo-219" value="" style="endArrow=none;html=1;rounded=0;" edge="1" parent="L259wKFu9ayAV8lxhYdo-257">
          <mxGeometry width="50" height="50" relative="1" as="geometry">
            <mxPoint x="1350" y="410" as="sourcePoint" />
            <mxPoint x="1300" y="360" as="targetPoint" />
          </mxGeometry>
        </mxCell>
        <mxCell id="L259wKFu9ayAV8lxhYdo-220" value="" style="endArrow=none;html=1;rounded=0;" edge="1" parent="L259wKFu9ayAV8lxhYdo-257">
          <mxGeometry width="50" height="50" relative="1" as="geometry">
            <mxPoint x="1190" y="430" as="sourcePoint" />
            <mxPoint x="1190" y="410" as="targetPoint" />
          </mxGeometry>
        </mxCell>
        <mxCell id="L259wKFu9ayAV8lxhYdo-221" value="" style="endArrow=none;html=1;rounded=0;" edge="1" parent="L259wKFu9ayAV8lxhYdo-257">
          <mxGeometry width="50" height="50" relative="1" as="geometry">
            <mxPoint x="1350" y="430" as="sourcePoint" />
            <mxPoint x="1350" y="410" as="targetPoint" />
          </mxGeometry>
        </mxCell>
        <mxCell id="L259wKFu9ayAV8lxhYdo-222" value="" style="endArrow=none;html=1;rounded=0;" edge="1" parent="L259wKFu9ayAV8lxhYdo-257">
          <mxGeometry width="50" height="50" relative="1" as="geometry">
            <mxPoint x="1190" y="290" as="sourcePoint" />
            <mxPoint x="1190" y="270" as="targetPoint" />
          </mxGeometry>
        </mxCell>
        <mxCell id="L259wKFu9ayAV8lxhYdo-223" value="" style="endArrow=none;html=1;rounded=0;" edge="1" parent="L259wKFu9ayAV8lxhYdo-257">
          <mxGeometry width="50" height="50" relative="1" as="geometry">
            <mxPoint x="1350" y="290" as="sourcePoint" />
            <mxPoint x="1350" y="270" as="targetPoint" />
          </mxGeometry>
        </mxCell>
        <mxCell id="L259wKFu9ayAV8lxhYdo-224" value="" style="endArrow=none;html=1;rounded=0;" edge="1" parent="L259wKFu9ayAV8lxhYdo-257">
          <mxGeometry width="50" height="50" relative="1" as="geometry">
            <mxPoint x="1280" y="360" as="sourcePoint" />
            <mxPoint x="1300" y="360" as="targetPoint" />
          </mxGeometry>
        </mxCell>
        <mxCell id="L259wKFu9ayAV8lxhYdo-225" value="" style="endArrow=none;html=1;rounded=0;" edge="1" parent="L259wKFu9ayAV8lxhYdo-257">
          <mxGeometry width="50" height="50" relative="1" as="geometry">
            <mxPoint x="1280" y="360" as="sourcePoint" />
            <mxPoint x="1280" y="380" as="targetPoint" />
          </mxGeometry>
        </mxCell>
        <mxCell id="L259wKFu9ayAV8lxhYdo-226" value="" style="endArrow=none;html=1;rounded=0;" edge="1" parent="L259wKFu9ayAV8lxhYdo-257">
          <mxGeometry width="50" height="50" relative="1" as="geometry">
            <mxPoint x="1260" y="360" as="sourcePoint" />
            <mxPoint x="1260" y="380" as="targetPoint" />
          </mxGeometry>
        </mxCell>
        <mxCell id="L259wKFu9ayAV8lxhYdo-227" value="" style="endArrow=none;html=1;rounded=0;" edge="1" parent="L259wKFu9ayAV8lxhYdo-257">
          <mxGeometry width="50" height="50" relative="1" as="geometry">
            <mxPoint x="1280" y="320" as="sourcePoint" />
            <mxPoint x="1280" y="340" as="targetPoint" />
          </mxGeometry>
        </mxCell>
        <mxCell id="L259wKFu9ayAV8lxhYdo-228" value="" style="endArrow=none;html=1;rounded=0;" edge="1" parent="L259wKFu9ayAV8lxhYdo-257">
          <mxGeometry width="50" height="50" relative="1" as="geometry">
            <mxPoint x="1260" y="320" as="sourcePoint" />
            <mxPoint x="1260" y="340" as="targetPoint" />
          </mxGeometry>
        </mxCell>
        <mxCell id="L259wKFu9ayAV8lxhYdo-229" value="" style="endArrow=none;html=1;rounded=0;" edge="1" parent="L259wKFu9ayAV8lxhYdo-257">
          <mxGeometry width="50" height="50" relative="1" as="geometry">
            <mxPoint x="1280" y="340" as="sourcePoint" />
            <mxPoint x="1300" y="340" as="targetPoint" />
          </mxGeometry>
        </mxCell>
        <mxCell id="L259wKFu9ayAV8lxhYdo-230" value="" style="endArrow=none;html=1;rounded=0;" edge="1" parent="L259wKFu9ayAV8lxhYdo-257">
          <mxGeometry width="50" height="50" relative="1" as="geometry">
            <mxPoint x="1240" y="340" as="sourcePoint" />
            <mxPoint x="1260" y="340" as="targetPoint" />
          </mxGeometry>
        </mxCell>
        <mxCell id="L259wKFu9ayAV8lxhYdo-231" value="" style="endArrow=none;html=1;rounded=0;" edge="1" parent="L259wKFu9ayAV8lxhYdo-257">
          <mxGeometry width="50" height="50" relative="1" as="geometry">
            <mxPoint x="1240" y="360" as="sourcePoint" />
            <mxPoint x="1260" y="360" as="targetPoint" />
          </mxGeometry>
        </mxCell>
        <mxCell id="L259wKFu9ayAV8lxhYdo-232" value="" style="endArrow=none;html=1;rounded=0;" edge="1" parent="L259wKFu9ayAV8lxhYdo-257">
          <mxGeometry width="50" height="50" relative="1" as="geometry">
            <mxPoint x="1280" y="100" as="sourcePoint" />
            <mxPoint x="1330" y="50" as="targetPoint" />
          </mxGeometry>
        </mxCell>
        <mxCell id="L259wKFu9ayAV8lxhYdo-233" value="" style="endArrow=none;html=1;rounded=0;" edge="1" parent="L259wKFu9ayAV8lxhYdo-257">
          <mxGeometry width="50" height="50" relative="1" as="geometry">
            <mxPoint x="1300" y="120" as="sourcePoint" />
            <mxPoint x="1350" y="70" as="targetPoint" />
          </mxGeometry>
        </mxCell>
        <mxCell id="L259wKFu9ayAV8lxhYdo-234" value="" style="endArrow=none;html=1;rounded=0;" edge="1" parent="L259wKFu9ayAV8lxhYdo-257">
          <mxGeometry width="50" height="50" relative="1" as="geometry">
            <mxPoint x="1190" y="190" as="sourcePoint" />
            <mxPoint x="1240" y="140" as="targetPoint" />
          </mxGeometry>
        </mxCell>
        <mxCell id="L259wKFu9ayAV8lxhYdo-235" value="" style="endArrow=none;html=1;rounded=0;" edge="1" parent="L259wKFu9ayAV8lxhYdo-257">
          <mxGeometry width="50" height="50" relative="1" as="geometry">
            <mxPoint x="1210" y="210" as="sourcePoint" />
            <mxPoint x="1260" y="160" as="targetPoint" />
          </mxGeometry>
        </mxCell>
        <mxCell id="L259wKFu9ayAV8lxhYdo-236" value="" style="endArrow=none;html=1;rounded=0;" edge="1" parent="L259wKFu9ayAV8lxhYdo-257">
          <mxGeometry width="50" height="50" relative="1" as="geometry">
            <mxPoint x="1240" y="120" as="sourcePoint" />
            <mxPoint x="1190" y="70" as="targetPoint" />
          </mxGeometry>
        </mxCell>
        <mxCell id="L259wKFu9ayAV8lxhYdo-237" value="" style="endArrow=none;html=1;rounded=0;" edge="1" parent="L259wKFu9ayAV8lxhYdo-257">
          <mxGeometry width="50" height="50" relative="1" as="geometry">
            <mxPoint x="1260" y="100" as="sourcePoint" />
            <mxPoint x="1210" y="50" as="targetPoint" />
          </mxGeometry>
        </mxCell>
        <mxCell id="L259wKFu9ayAV8lxhYdo-238" value="" style="endArrow=none;html=1;rounded=0;" edge="1" parent="L259wKFu9ayAV8lxhYdo-257">
          <mxGeometry width="50" height="50" relative="1" as="geometry">
            <mxPoint x="1190" y="50" as="sourcePoint" />
            <mxPoint x="1210" y="50" as="targetPoint" />
          </mxGeometry>
        </mxCell>
        <mxCell id="L259wKFu9ayAV8lxhYdo-239" value="" style="endArrow=none;html=1;rounded=0;" edge="1" parent="L259wKFu9ayAV8lxhYdo-257">
          <mxGeometry width="50" height="50" relative="1" as="geometry">
            <mxPoint x="1330" y="50" as="sourcePoint" />
            <mxPoint x="1350" y="50" as="targetPoint" />
          </mxGeometry>
        </mxCell>
        <mxCell id="L259wKFu9ayAV8lxhYdo-240" value="" style="endArrow=none;html=1;rounded=0;" edge="1" parent="L259wKFu9ayAV8lxhYdo-257">
          <mxGeometry width="50" height="50" relative="1" as="geometry">
            <mxPoint x="1190" y="210" as="sourcePoint" />
            <mxPoint x="1210" y="210" as="targetPoint" />
          </mxGeometry>
        </mxCell>
        <mxCell id="L259wKFu9ayAV8lxhYdo-241" value="" style="endArrow=none;html=1;rounded=0;" edge="1" parent="L259wKFu9ayAV8lxhYdo-257">
          <mxGeometry width="50" height="50" relative="1" as="geometry">
            <mxPoint x="1330" y="210" as="sourcePoint" />
            <mxPoint x="1350" y="210" as="targetPoint" />
          </mxGeometry>
        </mxCell>
        <mxCell id="L259wKFu9ayAV8lxhYdo-242" value="" style="endArrow=none;html=1;rounded=0;" edge="1" parent="L259wKFu9ayAV8lxhYdo-257">
          <mxGeometry width="50" height="50" relative="1" as="geometry">
            <mxPoint x="1330" y="210" as="sourcePoint" />
            <mxPoint x="1280" y="160" as="targetPoint" />
          </mxGeometry>
        </mxCell>
        <mxCell id="L259wKFu9ayAV8lxhYdo-243" value="" style="endArrow=none;html=1;rounded=0;" edge="1" parent="L259wKFu9ayAV8lxhYdo-257">
          <mxGeometry width="50" height="50" relative="1" as="geometry">
            <mxPoint x="1350" y="190" as="sourcePoint" />
            <mxPoint x="1300" y="140" as="targetPoint" />
          </mxGeometry>
        </mxCell>
        <mxCell id="L259wKFu9ayAV8lxhYdo-244" value="" style="endArrow=none;html=1;rounded=0;" edge="1" parent="L259wKFu9ayAV8lxhYdo-257">
          <mxGeometry width="50" height="50" relative="1" as="geometry">
            <mxPoint x="1190" y="210" as="sourcePoint" />
            <mxPoint x="1190" y="190" as="targetPoint" />
          </mxGeometry>
        </mxCell>
        <mxCell id="L259wKFu9ayAV8lxhYdo-245" value="" style="endArrow=none;html=1;rounded=0;" edge="1" parent="L259wKFu9ayAV8lxhYdo-257">
          <mxGeometry width="50" height="50" relative="1" as="geometry">
            <mxPoint x="1350" y="210" as="sourcePoint" />
            <mxPoint x="1350" y="190" as="targetPoint" />
          </mxGeometry>
        </mxCell>
        <mxCell id="L259wKFu9ayAV8lxhYdo-246" value="" style="endArrow=none;html=1;rounded=0;" edge="1" parent="L259wKFu9ayAV8lxhYdo-257">
          <mxGeometry width="50" height="50" relative="1" as="geometry">
            <mxPoint x="1190" y="70" as="sourcePoint" />
            <mxPoint x="1190" y="50" as="targetPoint" />
          </mxGeometry>
        </mxCell>
        <mxCell id="L259wKFu9ayAV8lxhYdo-247" value="" style="endArrow=none;html=1;rounded=0;" edge="1" parent="L259wKFu9ayAV8lxhYdo-257">
          <mxGeometry width="50" height="50" relative="1" as="geometry">
            <mxPoint x="1350" y="70" as="sourcePoint" />
            <mxPoint x="1350" y="50" as="targetPoint" />
          </mxGeometry>
        </mxCell>
        <mxCell id="L259wKFu9ayAV8lxhYdo-248" value="" style="endArrow=none;html=1;rounded=0;" edge="1" parent="L259wKFu9ayAV8lxhYdo-257">
          <mxGeometry width="50" height="50" relative="1" as="geometry">
            <mxPoint x="1280" y="140" as="sourcePoint" />
            <mxPoint x="1300" y="140" as="targetPoint" />
          </mxGeometry>
        </mxCell>
        <mxCell id="L259wKFu9ayAV8lxhYdo-249" value="" style="endArrow=none;html=1;rounded=0;" edge="1" parent="L259wKFu9ayAV8lxhYdo-257">
          <mxGeometry width="50" height="50" relative="1" as="geometry">
            <mxPoint x="1280" y="140" as="sourcePoint" />
            <mxPoint x="1280" y="160" as="targetPoint" />
          </mxGeometry>
        </mxCell>
        <mxCell id="L259wKFu9ayAV8lxhYdo-250" value="" style="endArrow=none;html=1;rounded=0;" edge="1" parent="L259wKFu9ayAV8lxhYdo-257">
          <mxGeometry width="50" height="50" relative="1" as="geometry">
            <mxPoint x="1260" y="140" as="sourcePoint" />
            <mxPoint x="1260" y="160" as="targetPoint" />
          </mxGeometry>
        </mxCell>
        <mxCell id="L259wKFu9ayAV8lxhYdo-251" value="" style="endArrow=none;html=1;rounded=0;" edge="1" parent="L259wKFu9ayAV8lxhYdo-257">
          <mxGeometry width="50" height="50" relative="1" as="geometry">
            <mxPoint x="1280" y="100" as="sourcePoint" />
            <mxPoint x="1280" y="120" as="targetPoint" />
          </mxGeometry>
        </mxCell>
        <mxCell id="L259wKFu9ayAV8lxhYdo-252" value="" style="endArrow=none;html=1;rounded=0;" edge="1" parent="L259wKFu9ayAV8lxhYdo-257">
          <mxGeometry width="50" height="50" relative="1" as="geometry">
            <mxPoint x="1260" y="100" as="sourcePoint" />
            <mxPoint x="1260" y="120" as="targetPoint" />
          </mxGeometry>
        </mxCell>
        <mxCell id="L259wKFu9ayAV8lxhYdo-253" value="" style="endArrow=none;html=1;rounded=0;" edge="1" parent="L259wKFu9ayAV8lxhYdo-257">
          <mxGeometry width="50" height="50" relative="1" as="geometry">
            <mxPoint x="1280" y="120" as="sourcePoint" />
            <mxPoint x="1300" y="120" as="targetPoint" />
          </mxGeometry>
        </mxCell>
        <mxCell id="L259wKFu9ayAV8lxhYdo-254" value="" style="endArrow=none;html=1;rounded=0;" edge="1" parent="L259wKFu9ayAV8lxhYdo-257">
          <mxGeometry width="50" height="50" relative="1" as="geometry">
            <mxPoint x="1240" y="120" as="sourcePoint" />
            <mxPoint x="1260" y="120" as="targetPoint" />
          </mxGeometry>
        </mxCell>
        <mxCell id="L259wKFu9ayAV8lxhYdo-255" value="" style="endArrow=none;html=1;rounded=0;" edge="1" parent="L259wKFu9ayAV8lxhYdo-257">
          <mxGeometry width="50" height="50" relative="1" as="geometry">
            <mxPoint x="1240" y="140" as="sourcePoint" />
            <mxPoint x="1260" y="140" as="targetPoint" />
          </mxGeometry>
        </mxCell>
        <mxCell id="L259wKFu9ayAV8lxhYdo-256" value="" style="ellipse;whiteSpace=wrap;html=1;aspect=fixed;" vertex="1" parent="L259wKFu9ayAV8lxhYdo-257">
          <mxGeometry x="690" y="120" width="40" height="40" as="geometry" />
        </mxCell>
      </root>
    </mxGraphModel>
  </diagram>
</mxfile>
